<svg xmlns="http://www.w3.org/2000/svg" xmlns:v="https://svgstorm.com"
viewBox = "0 0 1024 1024"
width="1024"
height="1024">
<g fill="None" fill-opacity="0.0" stroke="#FEFEFE" stroke-opacity="1.00" stroke-width="0.3"><path d="
M 0.00 1024.00 
L 1024.00 1024.00
L 1024.00 0.00
L 0.00 0.00
L 0.00 1024.00
M 765.00 243.00 
C 769.63 246.96 774.09 251.42 778.00 256.00
C 798.45 279.93 812.84 300.52 827.77 328.23 C 842.70 355.94 851.33 389.15 858.00 420.00
C 858.05 420.24 858.85 421.36 859.00 422.00
C 862.26 436.21 862.45 453.10 862.00 467.00
C 833.89 368.42 750.49 281.87 652.00 252.00
C 646.50 250.31 640.25 248.34 635.00 247.00
C 627.22 245.01 618.95 244.37 611.00 243.00
C 603.33 241.68 594.34 240.71 587.00 240.00
C 573.99 238.74 559.64 239.89 547.00 241.00
C 542.15 241.43 537.66 241.26 533.00 242.00
C 522.32 243.70 511.46 244.33 501.00 247.00
C 497.03 248.01 492.24 249.70 488.00 251.00
C 403.53 276.99 331.43 349.73 321.00 440.00
C 320.83 441.44 320.15 443.12 320.00 444.00
C 319.63 446.19 320.00 448.78 320.00 451.00
C 320.00 456.00 320.00 461.00 320.00 466.00
C 320.00 467.33 320.01 468.67 320.00 470.00
C 319.94 481.24 321.95 495.69 326.00 506.00
C 326.24 506.60 326.76 507.05 327.00 508.00
C 330.10 520.09 336.56 532.49 342.77 543.23 C 348.98 553.97 356.24 563.28 364.25 572.75 C 372.26 582.23 380.85 591.19 391.08 597.92 C 401.31 604.65 411.72 612.92 423.68 616.32 C 435.64 619.73 451.84 629.39 465.00 627.00
C 465.35 626.94 465.81 626.32 466.00 626.00
C 456.54 615.79 443.59 611.10 436.25 597.75 C 428.90 584.41 421.44 574.40 417.22 558.78 C 413.01 543.15 411.31 522.33 412.00 505.00
C 412.07 503.16 412.83 501.18 413.00 500.00
C 414.06 492.45 414.31 485.35 416.00 478.00
C 416.21 477.08 416.83 476.56 417.00 476.00
C 425.16 449.81 434.46 423.89 451.77 401.77 C 469.08 379.65 485.45 365.54 508.23 349.23 C 531.01 332.92 560.11 324.75 587.00 318.00
C 587.43 317.89 588.13 317.14 589.00 317.00
C 592.56 316.41 596.42 316.76 600.00 316.00
C 600.72 315.85 601.76 315.11 603.00 315.00
C 613.85 314.07 624.85 313.78 636.00 314.00
C 638.41 314.05 641.30 314.84 643.00 315.00
C 663.16 314.20 689.65 323.36 706.69 332.31 C 723.74 341.25 743.29 349.44 755.00 365.00
C 755.20 365.27 755.80 365.68 756.00 366.00
C 808.57 406.96 829.74 475.38 834.00 538.00
C 834.59 546.59 833.76 556.19 833.00 564.00
C 833.00 593.47 822.94 626.16 812.08 652.08 C 801.21 677.99 787.73 699.47 771.75 721.75 C 755.76 744.02 738.90 759.69 718.75 778.75 C 698.60 797.82 676.76 808.65 652.92 822.92 C 629.09 837.20 598.40 843.77 572.00 852.00
C 571.52 852.15 570.85 852.80 570.00 853.00
C 555.11 856.42 539.38 858.72 524.00 860.00
C 523.02 860.08 521.99 860.00 521.00 860.00
C 518.00 860.00 515.00 860.00 512.00 860.00
C 501.63 861.00 489.30 861.00 479.00 860.00
C 432.59 855.51 387.11 850.54 347.00 826.00
C 371.65 830.21 396.82 836.02 424.00 836.00 C 451.18 835.99 478.54 833.21 504.00 826.00
C 504.60 825.76 505.05 825.24 506.00 825.00
C 555.32 812.36 598.10 784.24 637.00 751.00
C 640.92 747.08 645.13 742.87 649.00 739.00
C 659.43 726.80 668.97 717.16 677.77 703.77 C 686.57 690.38 694.79 677.63 701.31 662.31 C 707.82 646.98 714.59 630.27 716.99 612.99 C 719.39 595.71 726.10 571.64 722.00 553.00
C 721.84 552.27 721.11 551.25 721.00 550.00
C 720.65 546.02 720.85 541.91 720.00 538.00
C 719.95 537.76 719.15 536.64 719.00 536.00
C 713.13 510.46 703.08 487.18 686.75 466.25 C 670.42 445.32 650.23 434.60 628.00 423.00
C 627.67 422.83 627.24 422.26 627.00 422.00
C 621.74 420.51 616.50 418.74 611.00 418.00
C 674.65 454.44 691.53 542.19 660.23 604.23 C 628.93 666.27 566.04 702.54 500.00 712.00
C 504.66 712.03 510.77 712.83 516.00 711.00
C 513.35 720.60 514.37 727.27 514.07 737.08 C 513.76 746.90 510.57 754.00 507.25 764.25 C 503.92 774.49 499.38 779.60 492.75 787.75 C 486.11 795.89 479.23 801.66 466.00 802.00
C 459.23 802.97 453.06 803.52 446.00 804.00
C 438.30 804.52 430.28 804.70 423.00 804.00
C 418.03 803.52 412.33 803.62 408.00 803.00
C 396.17 801.31 384.92 799.55 374.00 796.00
C 234.19 750.61 157.93 597.23 175.00 456.00
C 184.22 379.77 213.77 315.78 264.00 257.00
C 269.73 250.30 276.35 243.68 283.00 238.00
C 302.45 221.38 317.27 208.56 339.08 195.08 C 360.90 181.60 382.56 173.21 407.02 163.02 C 431.49 152.84 463.01 149.77 490.00 146.00
C 491.20 145.83 493.19 145.07 495.00 145.00
C 499.17 144.83 503.09 144.33 507.00 144.00
C 508.97 143.84 511.02 144.00 513.00 144.00
C 546.65 144.00 586.60 148.15 617.02 156.98 C 647.45 165.80 672.62 177.24 699.08 191.92 C 725.54 206.60 742.21 223.52 765.00 243.00 Z"/>
</g>
<g fill="None" fill-opacity="0.0" stroke="#041738" stroke-opacity="1.00" stroke-width="0.3"><path d="
M 495.00 145.00 
C 499.53 145.26 505.74 146.89 511.00 146.00
C 510.53 144.02 507.40 146.11 507.00 144.00
C 503.09 144.33 499.17 144.83 495.00 145.00 Z"/>
</g>
<g fill="None" fill-opacity="0.0" stroke="#1A3857" stroke-opacity="1.00" stroke-width="0.3"><path d="
M 495.00 145.00 
C 493.19 145.07 491.20 145.83 490.00 146.00
C 490.98 146.12 492.01 145.90 493.00 146.00
C 412.59 152.32 336.44 187.46 277.75 244.75 C 219.06 302.04 184.96 377.08 175.00 456.00
C 170.89 489.97 185.10 526.81 198.77 555.23 C 212.44 583.65 229.95 603.16 250.25 626.75 C 270.56 650.33 298.02 661.86 321.00 680.00
C 340.69 690.74 362.52 698.09 384.00 704.00
C 387.33 704.92 390.64 706.18 394.00 707.00
C 401.30 707.69 408.85 708.25 417.02 709.98 C 425.20 711.70 433.38 711.99 442.01 712.99 C 450.63 713.99 462.23 712.41 471.00 713.00 C 479.78 713.59 488.65 711.50 497.00 711.00 C 505.35 710.50 513.46 707.81 521.22 706.22 C 528.98 704.63 535.92 702.53 543.07 700.07 C 550.22 697.62 557.38 694.99 564.08 692.08 C 570.78 689.17 576.70 686.48 582.70 682.70 C 588.70 678.91 595.10 675.83 600.70 671.70 C 606.30 667.56 610.90 663.55 616.25 659.25 C 621.59 654.94 626.74 650.38 630.92 644.92 C 635.10 639.46 639.68 635.41 643.75 629.75 C 647.82 624.10 651.43 618.17 654.92 611.92 C 658.42 605.68 661.15 599.82 663.93 592.93 C 666.70 586.03 668.90 578.45 670.93 570.93 C 672.95 563.41 673.54 554.15 674.00 546.00 C 674.46 537.85 675.44 527.03 674.00 519.00 C 672.56 510.97 671.42 503.21 669.02 495.98 C 666.63 488.74 664.05 481.45 661.03 474.98 C 658.00 468.50 654.11 463.04 650.70 457.30 C 647.28 451.57 641.56 446.20 637.75 441.25 C 633.94 436.30 626.67 431.46 622.75 428.25 C 618.84 425.03 606.99 417.36 609.00 417.00
C 609.19 416.76 610.00 417.00 610.00 417.00
C 612.70 415.23 624.59 419.40 627.00 422.00
C 627.24 422.26 627.67 422.83 628.00 423.00
C 638.04 420.51 651.74 434.57 661.08 439.92 C 670.43 445.27 680.29 456.40 687.75 465.25 C 695.22 474.10 703.04 486.13 707.77 497.23 C 712.51 508.33 720.56 524.21 719.00 536.00
C 719.15 536.64 719.95 537.76 720.00 538.00
C 722.26 540.06 721.21 545.96 721.00 550.00
C 721.11 551.25 721.84 552.27 722.00 553.00
C 722.48 553.49 723.27 562.50 723.00 569.00 C 722.73 575.50 723.24 583.66 722.01 590.01 C 720.77 596.36 721.21 602.37 719.67 608.67 C 718.14 614.97 717.00 619.77 715.22 626.22 C 713.45 632.67 713.09 635.55 710.68 642.68 C 708.27 649.81 707.64 649.41 704.23 658.23 C 700.82 667.05 694.81 678.84 690.08 687.08 C 685.34 695.31 685.92 693.50 681.70 700.70 C 677.47 707.89 678.05 705.04 672.75 712.75 C 667.44 720.45 659.60 729.11 653.25 736.25 C 646.90 743.39 649.01 740.05 642.25 747.25 C 635.49 754.45 627.26 761.50 619.75 767.75 C 612.25 774.00 602.48 780.15 594.77 785.77 C 587.06 791.39 587.68 789.80 580.92 793.92 C 574.17 798.04 574.89 798.09 567.77 801.77 C 560.65 805.45 561.88 804.86 552.92 808.92 C 543.97 812.99 531.48 818.29 521.98 820.98 C 512.48 823.66 514.02 825.45 506.00 825.00
C 505.05 825.24 504.60 825.76 504.00 826.00
C 498.69 832.76 482.53 830.74 472.00 834.00 C 461.47 837.26 445.10 836.76 433.00 838.00 C 420.90 839.24 404.83 835.79 392.78 835.22 C 380.73 834.65 368.02 829.59 357.00 830.00
C 395.80 848.61 438.03 858.17 482.00 859.00
C 481.74 860.39 479.95 859.78 479.00 860.00
C 489.30 861.00 501.63 861.00 512.00 860.00
C 509.33 860.00 506.67 860.00 504.00 860.00
C 508.59 858.38 516.48 858.30 521.00 860.00
C 521.99 860.00 523.02 860.08 524.00 860.00
C 523.67 859.93 522.13 858.54 522.00 858.00
C 538.38 858.86 554.91 852.41 570.00 853.00
C 570.85 852.80 571.52 852.15 572.00 852.00
C 577.57 845.85 597.32 846.14 607.22 841.22 C 617.13 836.30 631.01 832.82 641.23 827.23 C 651.45 821.64 663.54 816.85 673.25 810.25 C 682.95 803.65 692.79 798.30 701.75 790.75 C 710.72 783.20 720.15 776.71 728.70 768.70 C 737.25 760.69 744.24 752.79 752.25 744.25 C 760.26 735.71 766.73 726.19 773.77 716.77 C 780.81 707.35 786.66 698.16 792.77 687.77 C 798.88 677.38 804.32 666.76 809.31 655.31 C 814.29 643.85 818.83 633.02 822.32 620.32 C 825.81 607.62 829.06 593.69 830.93 579.93 C 832.79 566.16 831.81 547.31 832.00 533.00 C 832.19 518.69 828.48 503.16 826.07 489.93 C 823.66 476.69 819.40 464.92 815.08 452.92 C 810.75 440.93 805.06 430.57 799.08 419.92 C 793.10 409.27 785.79 401.60 779.25 391.75 C 772.70 381.91 762.15 375.95 756.00 366.00
C 755.80 365.68 755.20 365.27 755.00 365.00
C 749.25 365.45 743.91 354.75 737.25 351.75 C 730.60 348.75 723.76 341.98 716.31 338.70 C 708.85 335.41 701.24 330.68 692.98 328.02 C 684.71 325.37 676.43 321.26 667.33 319.67 C 658.22 318.08 646.95 315.19 637.00 316.00
C 638.14 314.13 641.13 315.39 643.00 315.00
C 641.30 314.84 638.41 314.05 636.00 314.00
C 625.43 314.81 613.41 315.53 603.00 315.00
C 601.76 315.11 600.72 315.85 600.00 316.00
C 599.56 316.44 594.13 317.51 589.00 317.00
C 588.13 317.14 587.43 317.89 587.00 318.00
C 581.55 324.02 561.70 322.80 552.32 328.32 C 542.94 333.84 529.64 336.88 520.30 343.31 C 510.97 349.73 500.44 355.38 491.75 362.75 C 483.07 370.13 475.32 376.99 467.25 385.25 C 459.18 393.51 453.21 403.42 446.23 412.23 C 439.25 421.04 435.45 433.34 429.23 442.23 C 423.01 451.12 423.38 470.99 417.00 476.00
C 416.83 476.56 416.21 477.08 416.00 478.00
C 416.79 485.61 413.72 494.41 414.00 503.00
C 412.61 502.74 413.22 500.95 413.00 500.00
C 412.83 501.18 412.07 503.16 412.00 505.00
C 412.46 513.09 413.73 523.58 414.00 532.00 C 414.26 540.43 416.69 549.66 418.78 557.22 C 420.87 564.78 423.48 572.03 426.32 578.68 C 429.17 585.33 434.51 591.73 437.75 597.25 C 441.00 602.76 448.12 608.73 451.25 612.75 C 454.38 616.78 466.80 624.69 466.00 626.00
C 465.81 626.32 465.35 626.94 465.00 627.00
C 465.57 627.97 466.69 627.78 467.00 629.00
C 434.80 625.03 400.60 610.96 376.77 588.23 C 352.94 565.50 334.16 537.71 327.00 508.00
C 326.76 507.05 326.24 506.60 326.00 506.00
C 319.96 501.25 318.84 478.50 320.00 470.00
C 320.01 468.67 320.00 467.33 320.00 466.00
C 319.87 465.78 319.00 466.00 319.00 466.00
C 318.84 466.97 319.13 468.02 319.00 469.00
C 316.40 460.40 318.78 450.08 319.00 441.00
C 320.39 441.26 319.78 443.05 320.00 444.00
C 320.15 443.12 320.83 441.44 321.00 440.00
C 319.60 411.24 337.29 377.27 351.77 352.77 C 366.25 328.27 385.19 306.23 408.25 289.25 C 431.30 272.26 460.57 254.50 488.00 251.00
C 492.24 249.70 497.03 248.01 501.00 247.00
C 508.65 243.43 522.91 241.82 533.00 242.00
C 537.66 241.26 542.15 241.43 547.00 241.00
C 546.69 240.94 545.11 239.54 545.00 239.00
C 560.00 239.00 575.00 239.00 590.00 239.00
C 589.74 240.39 587.95 239.78 587.00 240.00
C 594.34 240.71 603.33 241.68 611.00 243.00
C 618.71 243.05 629.51 244.22 635.00 247.00
C 640.25 248.34 646.50 250.31 652.00 252.00
C 683.94 256.07 715.88 278.63 743.08 296.92 C 770.28 315.20 792.29 339.45 812.30 365.70 C 832.31 391.95 850.32 425.37 860.00 457.00
C 863.31 446.05 856.78 432.62 859.00 422.00
C 858.85 421.36 858.05 420.24 858.00 420.00
C 852.42 414.91 853.88 396.09 849.22 386.78 C 844.57 377.46 843.03 362.61 838.03 352.98 C 833.02 343.34 829.13 332.65 823.70 323.30 C 818.26 313.96 813.12 303.88 806.75 295.25 C 800.37 286.63 795.27 277.77 788.25 269.75 C 781.23 261.74 774.58 253.59 766.75 246.25 C 758.93 238.91 751.78 232.45 743.75 225.25 C 735.72 218.05 726.83 212.48 718.25 205.75 C 709.67 199.01 700.64 194.49 690.92 189.08 C 681.20 183.66 671.40 178.50 660.78 174.22 C 650.15 169.95 640.28 165.80 628.93 162.07 C 617.57 158.34 605.23 155.49 593.00 153.00 C 580.77 150.51 568.03 148.26 555.00 147.00 C 541.97 145.74 525.84 145.25 513.00 144.00
C 511.02 144.00 508.97 143.84 507.00 144.00
C 507.40 146.11 510.53 144.02 511.00 146.00
C 505.74 146.89 499.53 145.26 495.00 145.00 Z"/>
</g>
<g fill="None" fill-opacity="0.0" stroke="#081C3D" stroke-opacity="1.00" stroke-width="0.3"><path d="
M 858.00 420.00 
C 851.33 389.15 842.70 355.94 827.77 328.23 C 812.84 300.52 798.45 279.93 778.00 256.00
C 773.75 251.75 769.21 247.21 765.00 243.00
C 742.21 223.52 725.54 206.60 699.08 191.92 C 672.62 177.24 647.45 165.80 617.02 156.98 C 586.60 148.15 546.65 144.00 513.00 144.00
C 525.84 145.25 541.97 145.74 555.00 147.00 C 568.03 148.26 580.77 150.51 593.00 153.00 C 605.23 155.49 617.57 158.34 628.93 162.07 C 640.28 165.80 650.15 169.95 660.78 174.22 C 671.40 178.50 681.20 183.66 690.92 189.08 C 700.64 194.49 709.67 199.01 718.25 205.75 C 726.83 212.48 735.72 218.05 743.75 225.25 C 751.78 232.45 758.93 238.91 766.75 246.25 C 774.58 253.59 781.23 261.74 788.25 269.75 C 795.27 277.77 800.37 286.63 806.75 295.25 C 813.12 303.88 818.26 313.96 823.70 323.30 C 829.13 332.65 833.02 343.34 838.03 352.98 C 843.03 362.61 844.57 377.46 849.22 386.78 C 853.88 396.09 852.42 414.91 858.00 420.00 Z"/>
</g>
<g fill="None" fill-opacity="0.0" stroke="#081C3D" stroke-opacity="1.00" stroke-width="0.3"><path d="
M 283.00 238.00 
C 276.75 244.25 270.20 250.80 264.00 257.00
C 213.77 315.78 184.22 379.77 175.00 456.00
C 184.96 377.08 219.06 302.04 277.75 244.75 C 336.44 187.46 412.59 152.32 493.00 146.00
C 492.01 145.90 490.98 146.12 490.00 146.00
C 463.01 149.77 431.49 152.84 407.02 163.02 C 382.56 173.21 360.90 181.60 339.08 195.08 C 317.27 208.56 302.45 221.38 283.00 238.00 Z"/>
</g>
<g fill="None" fill-opacity="0.0" stroke="#6C8196" stroke-opacity="1.00" stroke-width="0.3"><path d="
M 264.00 257.00 
C 270.20 250.80 276.75 244.25 283.00 238.00
C 276.35 243.68 269.73 250.30 264.00 257.00 Z"/>
</g>
<g fill="None" fill-opacity="0.0" stroke="#040E2F" stroke-opacity="1.00" stroke-width="0.3"><path d="
M 547.00 241.00 
C 559.64 239.89 573.99 238.74 587.00 240.00
C 587.95 239.78 589.74 240.39 590.00 239.00
C 575.00 239.00 560.00 239.00 545.00 239.00
C 545.11 239.54 546.69 240.94 547.00 241.00 Z"/>
</g>
<g fill="None" fill-opacity="0.0" stroke="#071C3D" stroke-opacity="1.00" stroke-width="0.3"><path d="
M 501.00 247.00 
C 511.46 244.33 522.32 243.70 533.00 242.00
C 522.91 241.82 508.65 243.43 501.00 247.00 Z"/>
</g>
<g fill="None" fill-opacity="0.0" stroke="#081D3E" stroke-opacity="1.00" stroke-width="0.3"><path d="
M 611.00 243.00 
C 618.95 244.37 627.22 245.01 635.00 247.00
C 629.51 244.22 618.71 243.05 611.00 243.00 Z"/>
</g>
<g fill="None" fill-opacity="0.0" stroke="#8697AA" stroke-opacity="1.00" stroke-width="0.3"><path d="
M 778.00 256.00 
C 774.09 251.42 769.63 246.96 765.00 243.00
C 769.21 247.21 773.75 251.75 778.00 256.00 Z"/>
</g>
<g fill="None" fill-opacity="0.0" stroke="#081D3E" stroke-opacity="1.00" stroke-width="0.3"><path d="
M 321.00 440.00 
C 331.43 349.73 403.53 276.99 488.00 251.00
C 460.57 254.50 431.30 272.26 408.25 289.25 C 385.19 306.23 366.25 328.27 351.77 352.77 C 337.29 377.27 319.60 411.24 321.00 440.00 Z"/>
</g>
<g fill="None" fill-opacity="0.0" stroke="#091D3E" stroke-opacity="1.00" stroke-width="0.3"><path d="
M 652.00 252.00 
C 750.49 281.87 833.89 368.42 862.00 467.00
C 862.45 453.10 862.26 436.21 859.00 422.00
C 856.78 432.62 863.31 446.05 860.00 457.00
C 850.32 425.37 832.31 391.95 812.30 365.70 C 792.29 339.45 770.28 315.20 743.08 296.92 C 715.88 278.63 683.94 256.07 652.00 252.00 Z"/>
</g>
<g fill="None" fill-opacity="0.0" stroke="#021334" stroke-opacity="1.00" stroke-width="0.3"><path d="
M 603.00 315.00 
C 613.41 315.53 625.43 314.81 636.00 314.00
C 624.85 313.78 613.85 314.07 603.00 315.00 Z"/>
</g>
<g fill="None" fill-opacity="0.0" stroke="#081C3D" stroke-opacity="1.00" stroke-width="0.3"><path d="
M 755.00 365.00 
C 743.29 349.44 723.74 341.25 706.69 332.31 C 689.65 323.36 663.16 314.20 643.00 315.00
C 641.13 315.39 638.14 314.13 637.00 316.00
C 646.95 315.19 658.22 318.08 667.33 319.67 C 676.43 321.26 684.71 325.37 692.98 328.02 C 701.24 330.68 708.85 335.41 716.31 338.70 C 723.76 341.98 730.60 348.75 737.25 351.75 C 743.91 354.75 749.25 365.45 755.00 365.00 Z"/>
</g>
<g fill="None" fill-opacity="0.0" stroke="#021436" stroke-opacity="1.00" stroke-width="0.3"><path d="
M 589.00 317.00 
C 594.13 317.51 599.56 316.44 600.00 316.00
C 596.42 316.76 592.56 316.41 589.00 317.00 Z"/>
</g>
<g fill="None" fill-opacity="0.0" stroke="#0A1E3F" stroke-opacity="1.00" stroke-width="0.3"><path d="
M 417.00 476.00 
C 423.38 470.99 423.01 451.12 429.23 442.23 C 435.45 433.34 439.25 421.04 446.23 412.23 C 453.21 403.42 459.18 393.51 467.25 385.25 C 475.32 376.99 483.07 370.13 491.75 362.75 C 500.44 355.38 510.97 349.73 520.30 343.31 C 529.64 336.88 542.94 333.84 552.32 328.32 C 561.70 322.80 581.55 324.02 587.00 318.00
C 560.11 324.75 531.01 332.92 508.23 349.23 C 485.45 365.54 469.08 379.65 451.77 401.77 C 434.46 423.89 425.16 449.81 417.00 476.00 Z"/>
</g>
<g fill="None" fill-opacity="0.0" stroke="#071B3C" stroke-opacity="1.00" stroke-width="0.3"><path d="
M 572.00 852.00 
C 598.40 843.77 629.09 837.20 652.92 822.92 C 676.76 808.65 698.60 797.82 718.75 778.75 C 738.90 759.69 755.76 744.02 771.75 721.75 C 787.73 699.47 801.21 677.99 812.08 652.08 C 822.94 626.16 833.00 593.47 833.00 564.00
C 833.00 555.42 833.77 545.78 834.00 538.00
C 829.74 475.38 808.57 406.96 756.00 366.00
C 762.15 375.95 772.70 381.91 779.25 391.75 C 785.79 401.60 793.10 409.27 799.08 419.92 C 805.06 430.57 810.75 440.93 815.08 452.92 C 819.40 464.92 823.66 476.69 826.07 489.93 C 828.48 503.16 832.19 518.69 832.00 533.00 C 831.81 547.31 832.79 566.16 830.93 579.93 C 829.06 593.69 825.81 607.62 822.32 620.32 C 818.83 633.02 814.29 643.85 809.31 655.31 C 804.32 666.76 798.88 677.38 792.77 687.77 C 786.66 698.16 780.81 707.35 773.77 716.77 C 766.73 726.19 760.26 735.71 752.25 744.25 C 744.24 752.79 737.25 760.69 728.70 768.70 C 720.15 776.71 710.72 783.20 701.75 790.75 C 692.79 798.30 682.95 803.65 673.25 810.25 C 663.54 816.85 651.45 821.64 641.23 827.23 C 631.01 832.82 617.13 836.30 607.22 841.22 C 597.32 846.14 577.57 845.85 572.00 852.00 Z"/>
</g>
<g fill="None" fill-opacity="0.0" stroke="#0C2042" stroke-opacity="1.00" stroke-width="0.3"><path d="
M 610.00 417.00 
C 610.86 416.60 607.83 418.52 609.00 417.00
C 606.99 417.36 618.84 425.03 622.75 428.25 C 626.67 431.46 633.94 436.30 637.75 441.25 C 641.56 446.20 647.28 451.57 650.70 457.30 C 654.11 463.04 658.00 468.50 661.03 474.98 C 664.05 481.45 666.63 488.74 669.02 495.98 C 671.42 503.21 672.56 510.97 674.00 519.00 C 675.44 527.03 674.46 537.85 674.00 546.00 C 673.54 554.15 672.95 563.41 670.93 570.93 C 668.90 578.45 666.70 586.03 663.93 592.93 C 661.15 599.82 658.42 605.68 654.92 611.92 C 651.43 618.17 647.82 624.10 643.75 629.75 C 639.68 635.41 635.10 639.46 630.92 644.92 C 626.74 650.38 621.59 654.94 616.25 659.25 C 610.90 663.55 606.30 667.56 600.70 671.70 C 595.10 675.83 588.70 678.91 582.70 682.70 C 576.70 686.48 570.78 689.17 564.08 692.08 C 557.38 694.99 550.22 697.62 543.07 700.07 C 535.92 702.53 528.98 704.63 521.22 706.22 C 513.46 707.81 505.35 710.50 497.00 711.00 C 488.65 711.50 479.78 713.59 471.00 713.00 C 462.23 712.41 450.63 713.99 442.01 712.99 C 433.38 711.99 425.20 711.70 417.02 709.98 C 408.85 708.25 401.30 707.69 394.00 707.00
C 406.82 710.13 419.70 711.43 433.00 713.00
C 440.46 713.88 448.36 714.85 456.00 715.00
C 470.92 715.30 485.70 714.42 500.00 712.00
C 566.04 702.54 628.93 666.27 660.23 604.23 C 691.53 542.19 674.65 454.44 611.00 418.00
C 616.50 418.74 621.74 420.51 627.00 422.00
C 624.59 419.40 612.70 415.23 610.00 417.00 Z"/>
</g>
<g fill="None" fill-opacity="0.0" stroke="#E6E6ED" stroke-opacity="1.00" stroke-width="0.3"><path d="
M 610.00 417.00 
C 610.00 417.00 609.19 416.76 609.00 417.00
C 607.83 418.52 610.86 416.60 610.00 417.00 Z"/>
</g>
<g fill="None" fill-opacity="0.0" stroke="#0A1F3F" stroke-opacity="1.00" stroke-width="0.3"><path d="
M 628.00 423.00 
C 650.23 434.60 670.42 445.32 686.75 466.25 C 703.08 487.18 713.13 510.46 719.00 536.00
C 720.56 524.21 712.51 508.33 707.77 497.23 C 703.04 486.13 695.22 474.10 687.75 465.25 C 680.29 456.40 670.43 445.27 661.08 439.92 C 651.74 434.57 638.04 420.51 628.00 423.00 Z"/>
</g>
<g fill="None" fill-opacity="0.0" stroke="#021234" stroke-opacity="1.00" stroke-width="0.3"><path d="
M 319.00 466.00 
C 318.54 460.93 319.59 455.29 320.00 451.00
C 320.00 448.78 319.63 446.19 320.00 444.00
C 319.78 443.05 320.39 441.26 319.00 441.00
C 318.78 450.08 316.40 460.40 319.00 469.00
C 319.13 468.02 318.84 466.97 319.00 466.00 Z"/>
</g>
<g fill="None" fill-opacity="0.0" stroke="#556C85" stroke-opacity="1.00" stroke-width="0.3"><path d="
M 319.00 466.00 
C 319.00 466.00 319.87 465.78 320.00 466.00
C 320.00 461.00 320.00 456.00 320.00 451.00
C 319.59 455.29 318.54 460.93 319.00 466.00 Z"/>
</g>
<g fill="None" fill-opacity="0.0" stroke="#E95654" stroke-opacity="1.00" stroke-width="0.3"><path d="
M 374.00 796.00 
C 367.61 792.54 354.93 788.40 346.00 785.00
C 349.54 783.75 351.35 781.88 346.00 783.00
C 348.03 777.44 350.34 773.67 349.24 767.75 C 348.15 761.84 357.38 757.39 350.00 753.00
C 353.53 753.20 352.82 748.74 355.00 747.00
C 350.61 748.79 352.73 745.01 355.00 745.00
C 356.21 741.71 353.19 741.22 352.00 739.00
C 357.58 739.08 352.31 735.41 358.00 735.00
C 350.83 732.88 363.17 724.73 355.00 726.00
C 360.64 722.76 356.78 721.05 356.28 717.70 C 355.79 714.34 359.70 711.39 361.00 708.00
C 357.01 709.74 358.02 708.10 357.00 705.00
C 362.43 704.93 363.76 702.08 358.00 700.00
C 360.91 699.41 363.06 701.59 366.00 701.00
C 351.33 694.32 334.28 689.71 321.00 680.00
C 298.02 661.86 270.56 650.33 250.25 626.75 C 229.95 603.16 212.44 583.65 198.77 555.23 C 185.10 526.81 170.89 489.97 175.00 456.00
C 157.93 597.23 234.19 750.61 374.00 796.00 Z"/>
</g>
<g fill="None" fill-opacity="0.0" stroke="#0A1E3F" stroke-opacity="1.00" stroke-width="0.3"><path d="
M 326.00 506.00 
C 321.95 495.69 319.94 481.24 320.00 470.00
C 318.84 478.50 319.96 501.25 326.00 506.00 Z"/>
</g>
<g fill="None" fill-opacity="0.0" stroke="#021537" stroke-opacity="1.00" stroke-width="0.3"><path d="
M 413.00 500.00 
C 413.22 500.95 412.61 502.74 414.00 503.00
C 413.72 494.41 416.79 485.61 416.00 478.00
C 414.31 485.35 414.06 492.45 413.00 500.00 Z"/>
</g>
<g fill="None" fill-opacity="0.0" stroke="#05193A" stroke-opacity="1.00" stroke-width="0.3"><path d="
M 466.00 626.00 
C 466.80 624.69 454.38 616.78 451.25 612.75 C 448.12 608.73 441.00 602.76 437.75 597.25 C 434.51 591.73 429.17 585.33 426.32 578.68 C 423.48 572.03 420.87 564.78 418.78 557.22 C 416.69 549.66 414.26 540.43 414.00 532.00 C 413.73 523.58 412.46 513.09 412.00 505.00
C 411.31 522.33 413.01 543.15 417.22 558.78 C 421.44 574.40 428.90 584.41 436.25 597.75 C 443.59 611.10 456.54 615.79 466.00 626.00 Z"/>
</g>
<g fill="None" fill-opacity="0.0" stroke="#071B3C" stroke-opacity="1.00" stroke-width="0.3"><path d="
M 465.00 627.00 
C 451.84 629.39 435.64 619.73 423.68 616.32 C 411.72 612.92 401.31 604.65 391.08 597.92 C 380.85 591.19 372.26 582.23 364.25 572.75 C 356.24 563.28 348.98 553.97 342.77 543.23 C 336.56 532.49 330.10 520.09 327.00 508.00
C 334.16 537.71 352.94 565.50 376.77 588.23 C 400.60 610.96 434.80 625.03 467.00 629.00
C 466.69 627.78 465.57 627.97 465.00 627.00 Z"/>
</g>
<g fill="None" fill-opacity="0.0" stroke="#031437" stroke-opacity="1.00" stroke-width="0.3"><path d="
M 720.00 538.00 
C 720.85 541.91 720.65 546.02 721.00 550.00
C 721.21 545.96 722.26 540.06 720.00 538.00 Z"/>
</g>
<g fill="None" fill-opacity="0.0" stroke="#324F6A" stroke-opacity="1.00" stroke-width="0.3"><path d="
M 833.00 564.00 
C 833.76 556.19 834.59 546.59 834.00 538.00
C 833.77 545.78 833.00 555.42 833.00 564.00 Z"/>
</g>
<g fill="None" fill-opacity="0.0" stroke="#081B3C" stroke-opacity="1.00" stroke-width="0.3"><path d="
M 722.00 553.00 
C 726.10 571.64 719.39 595.71 716.99 612.99 C 714.59 630.27 707.82 646.98 701.31 662.31 C 694.79 677.63 686.57 690.38 677.77 703.77 C 668.97 717.16 659.43 726.80 649.00 739.00
C 645.34 743.29 641.24 747.38 637.00 751.00
C 598.10 784.24 555.32 812.36 506.00 825.00
C 514.02 825.45 512.48 823.66 521.98 820.98 C 531.48 818.29 543.97 812.99 552.92 808.92 C 561.88 804.86 560.65 805.45 567.77 801.77 C 574.89 798.09 574.17 798.04 580.92 793.92 C 587.68 789.80 587.06 791.39 594.77 785.77 C 602.48 780.15 612.25 774.00 619.75 767.75 C 627.26 761.50 635.49 754.45 642.25 747.25 C 649.01 740.05 646.90 743.39 653.25 736.25 C 659.60 729.11 667.44 720.45 672.75 712.75 C 678.05 705.04 677.47 707.89 681.70 700.70 C 685.92 693.50 685.34 695.31 690.08 687.08 C 694.81 678.84 700.82 667.05 704.23 658.23 C 707.64 649.41 708.27 649.81 710.68 642.68 C 713.09 635.55 713.45 632.67 715.22 626.22 C 717.00 619.77 718.14 614.97 719.67 608.67 C 721.21 602.37 720.77 596.36 722.01 590.01 C 723.24 583.66 722.73 575.50 723.00 569.00 C 723.27 562.50 722.48 553.49 722.00 553.00 Z"/>
</g>
<g fill="None" fill-opacity="0.0" stroke="#ED7572" stroke-opacity="1.00" stroke-width="0.3"><path d="
M 374.00 796.00 
C 384.92 799.55 396.17 801.31 408.00 803.00
C 404.66 801.85 395.11 799.48 389.00 799.00
C 395.54 798.05 389.70 787.90 397.00 788.00
C 394.64 781.74 401.63 777.20 401.07 769.92 C 400.51 762.64 405.52 756.52 404.86 751.08 C 404.20 745.63 405.06 741.43 405.93 734.93 C 406.80 728.42 402.87 721.55 411.00 719.00
C 408.83 716.90 407.18 715.64 410.00 713.00
C 403.18 707.82 389.78 710.32 384.00 704.00
C 362.52 698.09 340.69 690.74 321.00 680.00
C 334.28 689.71 351.33 694.32 366.00 701.00
C 363.06 701.59 360.91 699.41 358.00 700.00
C 363.76 702.08 362.43 704.93 357.00 705.00
C 358.02 708.10 357.01 709.74 361.00 708.00
C 359.70 711.39 355.79 714.34 356.28 717.70 C 356.78 721.05 360.64 722.76 355.00 726.00
C 363.17 724.73 350.83 732.88 358.00 735.00
C 352.31 735.41 357.58 739.08 352.00 739.00
C 353.19 741.22 356.21 741.71 355.00 745.00
C 352.73 745.01 350.61 748.79 355.00 747.00
C 352.82 748.74 353.53 753.20 350.00 753.00
C 357.38 757.39 348.15 761.84 349.24 767.75 C 350.34 773.67 348.03 777.44 346.00 783.00
C 351.35 781.88 349.54 783.75 346.00 785.00
C 354.93 788.40 367.61 792.54 374.00 796.00 Z"/>
</g>
<g fill="None" fill-opacity="0.0" stroke="#F1918D" stroke-opacity="1.00" stroke-width="0.3"><path d="
M 408.00 803.00 
C 412.33 803.62 418.03 803.52 423.00 804.00
C 426.56 805.25 418.41 801.79 417.00 802.00
C 423.77 801.70 423.43 795.37 427.92 789.92 C 432.41 784.48 433.81 780.31 435.99 772.99 C 438.17 765.68 440.09 757.63 442.06 751.92 C 444.03 746.20 442.63 739.55 443.20 733.75 C 443.77 727.96 443.61 720.82 448.00 720.00
C 443.97 715.90 447.21 718.27 451.00 716.00
C 445.71 715.16 434.10 716.82 433.00 713.00
C 419.70 711.43 406.82 710.13 394.00 707.00
C 390.64 706.18 387.33 704.92 384.00 704.00
C 389.78 710.32 403.18 707.82 410.00 713.00
C 407.18 715.64 408.83 716.90 411.00 719.00
C 402.87 721.55 406.80 728.42 405.93 734.93 C 405.06 741.43 404.20 745.63 404.86 751.08 C 405.52 756.52 400.51 762.64 401.07 769.92 C 401.63 777.20 394.64 781.74 397.00 788.00
C 389.70 787.90 395.54 798.05 389.00 799.00
C 395.11 799.48 404.66 801.85 408.00 803.00 Z"/>
</g>
<g fill="None" fill-opacity="0.0" stroke="#FCE8E6" stroke-opacity="1.00" stroke-width="0.3"><path d="
M 500.00 712.00 
C 485.70 714.42 470.92 715.30 456.00 715.00
C 463.15 715.86 472.14 716.74 480.00 716.00
C 484.02 715.62 488.61 714.21 493.00 715.00
C 490.89 744.20 484.27 779.08 460.00 800.00
C 461.03 802.37 465.04 799.54 466.00 802.00
C 479.23 801.66 486.11 795.89 492.75 787.75 C 499.38 779.60 503.92 774.49 507.25 764.25 C 510.57 754.00 513.76 746.90 514.07 737.08 C 514.37 727.27 513.35 720.60 516.00 711.00
C 510.77 712.83 504.66 712.03 500.00 712.00 Z"/>
</g>
<g fill="None" fill-opacity="0.0" stroke="#F5B1AD" stroke-opacity="1.00" stroke-width="0.3"><path d="
M 423.00 804.00 
C 430.28 804.70 438.30 804.52 446.00 804.00
C 443.48 803.76 438.39 802.93 436.00 802.00
C 444.70 803.60 450.73 790.82 454.71 785.70 C 458.68 780.59 462.89 772.76 465.19 765.75 C 467.49 758.73 468.77 749.78 469.93 741.92 C 471.10 734.06 471.85 722.41 471.00 717.00
C 473.84 716.41 477.98 718.23 480.00 716.00
C 472.14 716.74 463.15 715.86 456.00 715.00
C 448.36 714.85 440.46 713.88 433.00 713.00
C 434.10 716.82 445.71 715.16 451.00 716.00
C 447.21 718.27 443.97 715.90 448.00 720.00
C 443.61 720.82 443.77 727.96 443.20 733.75 C 442.63 739.55 444.03 746.20 442.06 751.92 C 440.09 757.63 438.17 765.68 435.99 772.99 C 433.81 780.31 432.41 784.48 427.92 789.92 C 423.43 795.37 423.77 801.70 417.00 802.00
C 418.41 801.79 426.56 805.25 423.00 804.00 Z"/>
</g>
<g fill="None" fill-opacity="0.0" stroke="#F9CDCA" stroke-opacity="1.00" stroke-width="0.3"><path d="
M 480.00 716.00 
C 477.98 718.23 473.84 716.41 471.00 717.00
C 471.85 722.41 471.10 734.06 469.93 741.92 C 468.77 749.78 467.49 758.73 465.19 765.75 C 462.89 772.76 458.68 780.59 454.71 785.70 C 450.73 790.82 444.70 803.60 436.00 802.00
C 438.39 802.93 443.48 803.76 446.00 804.00
C 453.06 803.52 459.23 802.97 466.00 802.00
C 465.04 799.54 461.03 802.37 460.00 800.00
C 484.27 779.08 490.89 744.20 493.00 715.00
C 488.61 714.21 484.02 715.62 480.00 716.00 Z"/>
</g>
<g fill="None" fill-opacity="0.0" stroke="#8D9DAE" stroke-opacity="1.00" stroke-width="0.3"><path d="
M 637.00 751.00 
C 641.24 747.38 645.34 743.29 649.00 739.00
C 645.13 742.87 640.92 747.08 637.00 751.00 Z"/>
</g>
<g fill="None" fill-opacity="0.0" stroke="#071C3D" stroke-opacity="1.00" stroke-width="0.3"><path d="
M 479.00 860.00 
C 479.95 859.78 481.74 860.39 482.00 859.00
C 438.03 858.17 395.80 848.61 357.00 830.00
C 368.02 829.59 380.73 834.65 392.78 835.22 C 404.83 835.79 420.90 839.24 433.00 838.00 C 445.10 836.76 461.47 837.26 472.00 834.00 C 482.53 830.74 498.69 832.76 504.00 826.00
C 478.54 833.21 451.18 835.99 424.00 836.00 C 396.82 836.02 371.65 830.21 347.00 826.00
C 387.11 850.54 432.59 855.51 479.00 860.00 Z"/>
</g>
<g fill="None" fill-opacity="0.0" stroke="#0C2142" stroke-opacity="1.00" stroke-width="0.3"><path d="
M 524.00 860.00 
C 539.38 858.72 555.11 856.42 570.00 853.00
C 554.91 852.41 538.38 858.86 522.00 858.00
C 522.13 858.54 523.67 859.93 524.00 860.00 Z"/>
</g>
<g fill="None" fill-opacity="0.0" stroke="#000D2E" stroke-opacity="1.00" stroke-width="0.3"><path d="
M 512.00 860.00 
C 515.00 860.00 518.00 860.00 521.00 860.00
C 516.48 858.30 508.59 858.38 504.00 860.00
C 506.67 860.00 509.33 860.00 512.00 860.00 Z"/>
</g>
<g fill="#FEFEFE" fill-opacity="1.00" stroke="None">
<path d="
M 0.00 1024.00 
L 1024.00 1024.00
L 1024.00 0.00
L 0.00 0.00
L 0.00 1024.00
M 765.00 243.00 
C 769.63 246.96 774.09 251.42 778.00 256.00
C 798.45 279.93 812.84 300.52 827.77 328.23 C 842.70 355.94 851.33 389.15 858.00 420.00
C 858.05 420.24 858.85 421.36 859.00 422.00
C 862.26 436.21 862.45 453.10 862.00 467.00
C 833.89 368.42 750.49 281.87 652.00 252.00
C 646.50 250.31 640.25 248.34 635.00 247.00
C 627.22 245.01 618.95 244.37 611.00 243.00
C 603.33 241.68 594.34 240.71 587.00 240.00
C 573.99 238.74 559.64 239.89 547.00 241.00
C 542.15 241.43 537.66 241.26 533.00 242.00
C 522.32 243.70 511.46 244.33 501.00 247.00
C 497.03 248.01 492.24 249.70 488.00 251.00
C 403.53 276.99 331.43 349.73 321.00 440.00
C 320.83 441.44 320.15 443.12 320.00 444.00
C 319.63 446.19 320.00 448.78 320.00 451.00
C 320.00 456.00 320.00 461.00 320.00 466.00
C 320.00 467.33 320.01 468.67 320.00 470.00
C 319.94 481.24 321.95 495.69 326.00 506.00
C 326.24 506.60 326.76 507.05 327.00 508.00
C 330.10 520.09 336.56 532.49 342.77 543.23 C 348.98 553.97 356.24 563.28 364.25 572.75 C 372.26 582.23 380.85 591.19 391.08 597.92 C 401.31 604.65 411.72 612.92 423.68 616.32 C 435.64 619.73 451.84 629.39 465.00 627.00
C 465.35 626.94 465.81 626.32 466.00 626.00
C 456.54 615.79 443.59 611.10 436.25 597.75 C 428.90 584.41 421.44 574.40 417.22 558.78 C 413.01 543.15 411.31 522.33 412.00 505.00
C 412.07 503.16 412.83 501.18 413.00 500.00
C 414.06 492.45 414.31 485.35 416.00 478.00
C 416.21 477.08 416.83 476.56 417.00 476.00
C 425.16 449.81 434.46 423.89 451.77 401.77 C 469.08 379.65 485.45 365.54 508.23 349.23 C 531.01 332.92 560.11 324.75 587.00 318.00
C 587.43 317.89 588.13 317.14 589.00 317.00
C 592.56 316.41 596.42 316.76 600.00 316.00
C 600.72 315.85 601.76 315.11 603.00 315.00
C 613.85 314.07 624.85 313.78 636.00 314.00
C 638.41 314.05 641.30 314.84 643.00 315.00
C 663.16 314.20 689.65 323.36 706.69 332.31 C 723.74 341.25 743.29 349.44 755.00 365.00
C 755.20 365.27 755.80 365.68 756.00 366.00
C 808.57 406.96 829.74 475.38 834.00 538.00
C 834.59 546.59 833.76 556.19 833.00 564.00
C 833.00 593.47 822.94 626.16 812.08 652.08 C 801.21 677.99 787.73 699.47 771.75 721.75 C 755.76 744.02 738.90 759.69 718.75 778.75 C 698.60 797.82 676.76 808.65 652.92 822.92 C 629.09 837.20 598.40 843.77 572.00 852.00
C 571.52 852.15 570.85 852.80 570.00 853.00
C 555.11 856.42 539.38 858.72 524.00 860.00
C 523.02 860.08 521.99 860.00 521.00 860.00
C 518.00 860.00 515.00 860.00 512.00 860.00
C 501.63 861.00 489.30 861.00 479.00 860.00
C 432.59 855.51 387.11 850.54 347.00 826.00
C 371.65 830.21 396.82 836.02 424.00 836.00 C 451.18 835.99 478.54 833.21 504.00 826.00
C 504.60 825.76 505.05 825.24 506.00 825.00
C 555.32 812.36 598.10 784.24 637.00 751.00
C 640.92 747.08 645.13 742.87 649.00 739.00
C 659.43 726.80 668.97 717.16 677.77 703.77 C 686.57 690.38 694.79 677.63 701.31 662.31 C 707.82 646.98 714.59 630.27 716.99 612.99 C 719.39 595.71 726.10 571.64 722.00 553.00
C 721.84 552.27 721.11 551.25 721.00 550.00
C 720.65 546.02 720.85 541.91 720.00 538.00
C 719.95 537.76 719.15 536.64 719.00 536.00
C 713.13 510.46 703.08 487.18 686.75 466.25 C 670.42 445.32 650.23 434.60 628.00 423.00
C 627.67 422.83 627.24 422.26 627.00 422.00
C 621.74 420.51 616.50 418.74 611.00 418.00
C 674.65 454.44 691.53 542.19 660.23 604.23 C 628.93 666.27 566.04 702.54 500.00 712.00
C 504.66 712.03 510.77 712.83 516.00 711.00
C 513.35 720.60 514.37 727.27 514.07 737.08 C 513.76 746.90 510.57 754.00 507.25 764.25 C 503.92 774.49 499.38 779.60 492.75 787.75 C 486.11 795.89 479.23 801.66 466.00 802.00
C 459.23 802.97 453.06 803.52 446.00 804.00
C 438.30 804.52 430.28 804.70 423.00 804.00
C 418.03 803.52 412.33 803.62 408.00 803.00
C 396.17 801.31 384.92 799.55 374.00 796.00
C 234.19 750.61 157.93 597.23 175.00 456.00
C 184.22 379.77 213.77 315.78 264.00 257.00
C 269.73 250.30 276.35 243.68 283.00 238.00
C 302.45 221.38 317.27 208.56 339.08 195.08 C 360.90 181.60 382.56 173.21 407.02 163.02 C 431.49 152.84 463.01 149.77 490.00 146.00
C 491.20 145.83 493.19 145.07 495.00 145.00
C 499.17 144.83 503.09 144.33 507.00 144.00
C 508.97 143.84 511.02 144.00 513.00 144.00
C 546.65 144.00 586.60 148.15 617.02 156.98 C 647.45 165.80 672.62 177.24 699.08 191.92 C 725.54 206.60 742.21 223.52 765.00 243.00 Z"/>
</g>
<g fill="#041738" fill-opacity="1.00" stroke="None">
<path d="
M 495.00 145.00 
C 499.53 145.26 505.74 146.89 511.00 146.00
C 510.53 144.02 507.40 146.11 507.00 144.00
C 503.09 144.33 499.17 144.83 495.00 145.00 Z"/>
</g>
<g fill="#1A3857" fill-opacity="1.00" stroke="None">
<path d="
M 495.00 145.00 
C 493.19 145.07 491.20 145.83 490.00 146.00
C 490.98 146.12 492.01 145.90 493.00 146.00
C 412.59 152.32 336.44 187.46 277.75 244.75 C 219.06 302.04 184.96 377.08 175.00 456.00
C 170.89 489.97 185.10 526.81 198.77 555.23 C 212.44 583.65 229.95 603.16 250.25 626.75 C 270.56 650.33 298.02 661.86 321.00 680.00
C 340.69 690.74 362.52 698.09 384.00 704.00
C 387.33 704.92 390.64 706.18 394.00 707.00
C 401.30 707.69 408.85 708.25 417.02 709.98 C 425.20 711.70 433.38 711.99 442.01 712.99 C 450.63 713.99 462.23 712.41 471.00 713.00 C 479.78 713.59 488.65 711.50 497.00 711.00 C 505.35 710.50 513.46 707.81 521.22 706.22 C 528.98 704.63 535.92 702.53 543.07 700.07 C 550.22 697.62 557.38 694.99 564.08 692.08 C 570.78 689.17 576.70 686.48 582.70 682.70 C 588.70 678.91 595.10 675.83 600.70 671.70 C 606.30 667.56 610.90 663.55 616.25 659.25 C 621.59 654.94 626.74 650.38 630.92 644.92 C 635.10 639.46 639.68 635.41 643.75 629.75 C 647.82 624.10 651.43 618.17 654.92 611.92 C 658.42 605.68 661.15 599.82 663.93 592.93 C 666.70 586.03 668.90 578.45 670.93 570.93 C 672.95 563.41 673.54 554.15 674.00 546.00 C 674.46 537.85 675.44 527.03 674.00 519.00 C 672.56 510.97 671.42 503.21 669.02 495.98 C 666.63 488.74 664.05 481.45 661.03 474.98 C 658.00 468.50 654.11 463.04 650.70 457.30 C 647.28 451.57 641.56 446.20 637.75 441.25 C 633.94 436.30 626.67 431.46 622.75 428.25 C 618.84 425.03 606.99 417.36 609.00 417.00
C 609.19 416.76 610.00 417.00 610.00 417.00
C 612.70 415.23 624.59 419.40 627.00 422.00
C 627.24 422.26 627.67 422.83 628.00 423.00
C 638.04 420.51 651.74 434.57 661.08 439.92 C 670.43 445.27 680.29 456.40 687.75 465.25 C 695.22 474.10 703.04 486.13 707.77 497.23 C 712.51 508.33 720.56 524.21 719.00 536.00
C 719.15 536.64 719.95 537.76 720.00 538.00
C 722.26 540.06 721.21 545.96 721.00 550.00
C 721.11 551.25 721.84 552.27 722.00 553.00
C 722.48 553.49 723.27 562.50 723.00 569.00 C 722.73 575.50 723.24 583.66 722.01 590.01 C 720.77 596.36 721.21 602.37 719.67 608.67 C 718.14 614.97 717.00 619.77 715.22 626.22 C 713.45 632.67 713.09 635.55 710.68 642.68 C 708.27 649.81 707.64 649.41 704.23 658.23 C 700.82 667.05 694.81 678.84 690.08 687.08 C 685.34 695.31 685.92 693.50 681.70 700.70 C 677.47 707.89 678.05 705.04 672.75 712.75 C 667.44 720.45 659.60 729.11 653.25 736.25 C 646.90 743.39 649.01 740.05 642.25 747.25 C 635.49 754.45 627.26 761.50 619.75 767.75 C 612.25 774.00 602.48 780.15 594.77 785.77 C 587.06 791.39 587.68 789.80 580.92 793.92 C 574.17 798.04 574.89 798.09 567.77 801.77 C 560.65 805.45 561.88 804.86 552.92 808.92 C 543.97 812.99 531.48 818.29 521.98 820.98 C 512.48 823.66 514.02 825.45 506.00 825.00
C 505.05 825.24 504.60 825.76 504.00 826.00
C 498.69 832.76 482.53 830.74 472.00 834.00 C 461.47 837.26 445.10 836.76 433.00 838.00 C 420.90 839.24 404.83 835.79 392.78 835.22 C 380.73 834.65 368.02 829.59 357.00 830.00
C 395.80 848.61 438.03 858.17 482.00 859.00
C 481.74 860.39 479.95 859.78 479.00 860.00
C 489.30 861.00 501.63 861.00 512.00 860.00
C 509.33 860.00 506.67 860.00 504.00 860.00
C 508.59 858.38 516.48 858.30 521.00 860.00
C 521.99 860.00 523.02 860.08 524.00 860.00
C 523.67 859.93 522.13 858.54 522.00 858.00
C 538.38 858.86 554.91 852.41 570.00 853.00
C 570.85 852.80 571.52 852.15 572.00 852.00
C 577.57 845.85 597.32 846.14 607.22 841.22 C 617.13 836.30 631.01 832.82 641.23 827.23 C 651.45 821.64 663.54 816.85 673.25 810.25 C 682.95 803.65 692.79 798.30 701.75 790.75 C 710.72 783.20 720.15 776.71 728.70 768.70 C 737.25 760.69 744.24 752.79 752.25 744.25 C 760.26 735.71 766.73 726.19 773.77 716.77 C 780.81 707.35 786.66 698.16 792.77 687.77 C 798.88 677.38 804.32 666.76 809.31 655.31 C 814.29 643.85 818.83 633.02 822.32 620.32 C 825.81 607.62 829.06 593.69 830.93 579.93 C 832.79 566.16 831.81 547.31 832.00 533.00 C 832.19 518.69 828.48 503.16 826.07 489.93 C 823.66 476.69 819.40 464.92 815.08 452.92 C 810.75 440.93 805.06 430.57 799.08 419.92 C 793.10 409.27 785.79 401.60 779.25 391.75 C 772.70 381.91 762.15 375.95 756.00 366.00
C 755.80 365.68 755.20 365.27 755.00 365.00
C 749.25 365.45 743.91 354.75 737.25 351.75 C 730.60 348.75 723.76 341.98 716.31 338.70 C 708.85 335.41 701.24 330.68 692.98 328.02 C 684.71 325.37 676.43 321.26 667.33 319.67 C 658.22 318.08 646.95 315.19 637.00 316.00
C 638.14 314.13 641.13 315.39 643.00 315.00
C 641.30 314.84 638.41 314.05 636.00 314.00
C 625.43 314.81 613.41 315.53 603.00 315.00
C 601.76 315.11 600.72 315.85 600.00 316.00
C 599.56 316.44 594.13 317.51 589.00 317.00
C 588.13 317.14 587.43 317.89 587.00 318.00
C 581.55 324.02 561.70 322.80 552.32 328.32 C 542.94 333.84 529.64 336.88 520.30 343.31 C 510.97 349.73 500.44 355.38 491.75 362.75 C 483.07 370.13 475.32 376.99 467.25 385.25 C 459.18 393.51 453.21 403.42 446.23 412.23 C 439.25 421.04 435.45 433.34 429.23 442.23 C 423.01 451.12 423.38 470.99 417.00 476.00
C 416.83 476.56 416.21 477.08 416.00 478.00
C 416.79 485.61 413.72 494.41 414.00 503.00
C 412.61 502.74 413.22 500.95 413.00 500.00
C 412.83 501.18 412.07 503.16 412.00 505.00
C 412.46 513.09 413.73 523.58 414.00 532.00 C 414.26 540.43 416.69 549.66 418.78 557.22 C 420.87 564.78 423.48 572.03 426.32 578.68 C 429.17 585.33 434.51 591.73 437.75 597.25 C 441.00 602.76 448.12 608.73 451.25 612.75 C 454.38 616.78 466.80 624.69 466.00 626.00
C 465.81 626.32 465.35 626.94 465.00 627.00
C 465.57 627.97 466.69 627.78 467.00 629.00
C 434.80 625.03 400.60 610.96 376.77 588.23 C 352.94 565.50 334.16 537.71 327.00 508.00
C 326.76 507.05 326.24 506.60 326.00 506.00
C 319.96 501.25 318.84 478.50 320.00 470.00
C 320.01 468.67 320.00 467.33 320.00 466.00
C 319.87 465.78 319.00 466.00 319.00 466.00
C 318.84 466.97 319.13 468.02 319.00 469.00
C 316.40 460.40 318.78 450.08 319.00 441.00
C 320.39 441.26 319.78 443.05 320.00 444.00
C 320.15 443.12 320.83 441.44 321.00 440.00
C 319.60 411.24 337.29 377.27 351.77 352.77 C 366.25 328.27 385.19 306.23 408.25 289.25 C 431.30 272.26 460.57 254.50 488.00 251.00
C 492.24 249.70 497.03 248.01 501.00 247.00
C 508.65 243.43 522.91 241.82 533.00 242.00
C 537.66 241.26 542.15 241.43 547.00 241.00
C 546.69 240.94 545.11 239.54 545.00 239.00
C 560.00 239.00 575.00 239.00 590.00 239.00
C 589.74 240.39 587.95 239.78 587.00 240.00
C 594.34 240.71 603.33 241.68 611.00 243.00
C 618.71 243.05 629.51 244.22 635.00 247.00
C 640.25 248.34 646.50 250.31 652.00 252.00
C 683.94 256.07 715.88 278.63 743.08 296.92 C 770.28 315.20 792.29 339.45 812.30 365.70 C 832.31 391.95 850.32 425.37 860.00 457.00
C 863.31 446.05 856.78 432.62 859.00 422.00
C 858.85 421.36 858.05 420.24 858.00 420.00
C 852.42 414.91 853.88 396.09 849.22 386.78 C 844.57 377.46 843.03 362.61 838.03 352.98 C 833.02 343.34 829.13 332.65 823.70 323.30 C 818.26 313.96 813.12 303.88 806.75 295.25 C 800.37 286.63 795.27 277.77 788.25 269.75 C 781.23 261.74 774.58 253.59 766.75 246.25 C 758.93 238.91 751.78 232.45 743.75 225.25 C 735.72 218.05 726.83 212.48 718.25 205.75 C 709.67 199.01 700.64 194.49 690.92 189.08 C 681.20 183.66 671.40 178.50 660.78 174.22 C 650.15 169.95 640.28 165.80 628.93 162.07 C 617.57 158.34 605.23 155.49 593.00 153.00 C 580.77 150.51 568.03 148.26 555.00 147.00 C 541.97 145.74 525.84 145.25 513.00 144.00
C 511.02 144.00 508.97 143.84 507.00 144.00
C 507.40 146.11 510.53 144.02 511.00 146.00
C 505.74 146.89 499.53 145.26 495.00 145.00 Z"/>
</g>
<g fill="#081C3D" fill-opacity="1.00" stroke="None">
<path d="
M 858.00 420.00 
C 851.33 389.15 842.70 355.94 827.77 328.23 C 812.84 300.52 798.45 279.93 778.00 256.00
C 773.75 251.75 769.21 247.21 765.00 243.00
C 742.21 223.52 725.54 206.60 699.08 191.92 C 672.62 177.24 647.45 165.80 617.02 156.98 C 586.60 148.15 546.65 144.00 513.00 144.00
C 525.84 145.25 541.97 145.74 555.00 147.00 C 568.03 148.26 580.77 150.51 593.00 153.00 C 605.23 155.49 617.57 158.34 628.93 162.07 C 640.28 165.80 650.15 169.95 660.78 174.22 C 671.40 178.50 681.20 183.66 690.92 189.08 C 700.64 194.49 709.67 199.01 718.25 205.75 C 726.83 212.48 735.72 218.05 743.75 225.25 C 751.78 232.45 758.93 238.91 766.75 246.25 C 774.58 253.59 781.23 261.74 788.25 269.75 C 795.27 277.77 800.37 286.63 806.75 295.25 C 813.12 303.88 818.26 313.96 823.70 323.30 C 829.13 332.65 833.02 343.34 838.03 352.98 C 843.03 362.61 844.57 377.46 849.22 386.78 C 853.88 396.09 852.42 414.91 858.00 420.00 Z"/>
</g>
<g fill="#081C3D" fill-opacity="1.00" stroke="None">
<path d="
M 283.00 238.00 
C 276.75 244.25 270.20 250.80 264.00 257.00
C 213.77 315.78 184.22 379.77 175.00 456.00
C 184.96 377.08 219.06 302.04 277.75 244.75 C 336.44 187.46 412.59 152.32 493.00 146.00
C 492.01 145.90 490.98 146.12 490.00 146.00
C 463.01 149.77 431.49 152.84 407.02 163.02 C 382.56 173.21 360.90 181.60 339.08 195.08 C 317.27 208.56 302.45 221.38 283.00 238.00 Z"/>
</g>
<g fill="#6C8196" fill-opacity="1.00" stroke="None">
<path d="
M 264.00 257.00 
C 270.20 250.80 276.75 244.25 283.00 238.00
C 276.35 243.68 269.73 250.30 264.00 257.00 Z"/>
</g>
<g fill="#040E2F" fill-opacity="1.00" stroke="None">
<path d="
M 547.00 241.00 
C 559.64 239.89 573.99 238.74 587.00 240.00
C 587.95 239.78 589.74 240.39 590.00 239.00
C 575.00 239.00 560.00 239.00 545.00 239.00
C 545.11 239.54 546.69 240.94 547.00 241.00 Z"/>
</g>
<g fill="#071C3D" fill-opacity="1.00" stroke="None">
<path d="
M 501.00 247.00 
C 511.46 244.33 522.32 243.70 533.00 242.00
C 522.91 241.82 508.65 243.43 501.00 247.00 Z"/>
</g>
<g fill="#081D3E" fill-opacity="1.00" stroke="None">
<path d="
M 611.00 243.00 
C 618.95 244.37 627.22 245.01 635.00 247.00
C 629.51 244.22 618.71 243.05 611.00 243.00 Z"/>
</g>
<g fill="#8697AA" fill-opacity="1.00" stroke="None">
<path d="
M 778.00 256.00 
C 774.09 251.42 769.63 246.96 765.00 243.00
C 769.21 247.21 773.75 251.75 778.00 256.00 Z"/>
</g>
<g fill="#081D3E" fill-opacity="1.00" stroke="None">
<path d="
M 321.00 440.00 
C 331.43 349.73 403.53 276.99 488.00 251.00
C 460.57 254.50 431.30 272.26 408.25 289.25 C 385.19 306.23 366.25 328.27 351.77 352.77 C 337.29 377.27 319.60 411.24 321.00 440.00 Z"/>
</g>
<g fill="#091D3E" fill-opacity="1.00" stroke="None">
<path d="
M 652.00 252.00 
C 750.49 281.87 833.89 368.42 862.00 467.00
C 862.45 453.10 862.26 436.21 859.00 422.00
C 856.78 432.62 863.31 446.05 860.00 457.00
C 850.32 425.37 832.31 391.95 812.30 365.70 C 792.29 339.45 770.28 315.20 743.08 296.92 C 715.88 278.63 683.94 256.07 652.00 252.00 Z"/>
</g>
<g fill="#021334" fill-opacity="1.00" stroke="None">
<path d="
M 603.00 315.00 
C 613.41 315.53 625.43 314.81 636.00 314.00
C 624.85 313.78 613.85 314.07 603.00 315.00 Z"/>
</g>
<g fill="#081C3D" fill-opacity="1.00" stroke="None">
<path d="
M 755.00 365.00 
C 743.29 349.44 723.74 341.25 706.69 332.31 C 689.65 323.36 663.16 314.20 643.00 315.00
C 641.13 315.39 638.14 314.13 637.00 316.00
C 646.95 315.19 658.22 318.08 667.33 319.67 C 676.43 321.26 684.71 325.37 692.98 328.02 C 701.24 330.68 708.85 335.41 716.31 338.70 C 723.76 341.98 730.60 348.75 737.25 351.75 C 743.91 354.75 749.25 365.45 755.00 365.00 Z"/>
</g>
<g fill="#021436" fill-opacity="1.00" stroke="None">
<path d="
M 589.00 317.00 
C 594.13 317.51 599.56 316.44 600.00 316.00
C 596.42 316.76 592.56 316.41 589.00 317.00 Z"/>
</g>
<g fill="#0A1E3F" fill-opacity="1.00" stroke="None">
<path d="
M 417.00 476.00 
C 423.38 470.99 423.01 451.12 429.23 442.23 C 435.45 433.34 439.25 421.04 446.23 412.23 C 453.21 403.42 459.18 393.51 467.25 385.25 C 475.32 376.99 483.07 370.13 491.75 362.75 C 500.44 355.38 510.97 349.73 520.30 343.31 C 529.64 336.88 542.94 333.84 552.32 328.32 C 561.70 322.80 581.55 324.02 587.00 318.00
C 560.11 324.75 531.01 332.92 508.23 349.23 C 485.45 365.54 469.08 379.65 451.77 401.77 C 434.46 423.89 425.16 449.81 417.00 476.00 Z"/>
</g>
<g fill="#071B3C" fill-opacity="1.00" stroke="None">
<path d="
M 572.00 852.00 
C 598.40 843.77 629.09 837.20 652.92 822.92 C 676.76 808.65 698.60 797.82 718.75 778.75 C 738.90 759.69 755.76 744.02 771.75 721.75 C 787.73 699.47 801.21 677.99 812.08 652.08 C 822.94 626.16 833.00 593.47 833.00 564.00
C 833.00 555.42 833.77 545.78 834.00 538.00
C 829.74 475.38 808.57 406.96 756.00 366.00
C 762.15 375.95 772.70 381.91 779.25 391.75 C 785.79 401.60 793.10 409.27 799.08 419.92 C 805.06 430.57 810.75 440.93 815.08 452.92 C 819.40 464.92 823.66 476.69 826.07 489.93 C 828.48 503.16 832.19 518.69 832.00 533.00 C 831.81 547.31 832.79 566.16 830.93 579.93 C 829.06 593.69 825.81 607.62 822.32 620.32 C 818.83 633.02 814.29 643.85 809.31 655.31 C 804.32 666.76 798.88 677.38 792.77 687.77 C 786.66 698.16 780.81 707.35 773.77 716.77 C 766.73 726.19 760.26 735.71 752.25 744.25 C 744.24 752.79 737.25 760.69 728.70 768.70 C 720.15 776.71 710.72 783.20 701.75 790.75 C 692.79 798.30 682.95 803.65 673.25 810.25 C 663.54 816.85 651.45 821.64 641.23 827.23 C 631.01 832.82 617.13 836.30 607.22 841.22 C 597.32 846.14 577.57 845.85 572.00 852.00 Z"/>
</g>
<g fill="#0C2042" fill-opacity="1.00" stroke="None">
<path d="
M 610.00 417.00 
C 610.86 416.60 607.83 418.52 609.00 417.00
C 606.99 417.36 618.84 425.03 622.75 428.25 C 626.67 431.46 633.94 436.30 637.75 441.25 C 641.56 446.20 647.28 451.57 650.70 457.30 C 654.11 463.04 658.00 468.50 661.03 474.98 C 664.05 481.45 666.63 488.74 669.02 495.98 C 671.42 503.21 672.56 510.97 674.00 519.00 C 675.44 527.03 674.46 537.85 674.00 546.00 C 673.54 554.15 672.95 563.41 670.93 570.93 C 668.90 578.45 666.70 586.03 663.93 592.93 C 661.15 599.82 658.42 605.68 654.92 611.92 C 651.43 618.17 647.82 624.10 643.75 629.75 C 639.68 635.41 635.10 639.46 630.92 644.92 C 626.74 650.38 621.59 654.94 616.25 659.25 C 610.90 663.55 606.30 667.56 600.70 671.70 C 595.10 675.83 588.70 678.91 582.70 682.70 C 576.70 686.48 570.78 689.17 564.08 692.08 C 557.38 694.99 550.22 697.62 543.07 700.07 C 535.92 702.53 528.98 704.63 521.22 706.22 C 513.46 707.81 505.35 710.50 497.00 711.00 C 488.65 711.50 479.78 713.59 471.00 713.00 C 462.23 712.41 450.63 713.99 442.01 712.99 C 433.38 711.99 425.20 711.70 417.02 709.98 C 408.85 708.25 401.30 707.69 394.00 707.00
C 406.82 710.13 419.70 711.43 433.00 713.00
C 440.46 713.88 448.36 714.85 456.00 715.00
C 470.92 715.30 485.70 714.42 500.00 712.00
C 566.04 702.54 628.93 666.27 660.23 604.23 C 691.53 542.19 674.65 454.44 611.00 418.00
C 616.50 418.74 621.74 420.51 627.00 422.00
C 624.59 419.40 612.70 415.23 610.00 417.00 Z"/>
</g>
<g fill="#E6E6ED" fill-opacity="1.00" stroke="None">
<path d="
M 610.00 417.00 
C 610.00 417.00 609.19 416.76 609.00 417.00
C 607.83 418.52 610.86 416.60 610.00 417.00 Z"/>
</g>
<g fill="#0A1F3F" fill-opacity="1.00" stroke="None">
<path d="
M 628.00 423.00 
C 650.23 434.60 670.42 445.32 686.75 466.25 C 703.08 487.18 713.13 510.46 719.00 536.00
C 720.56 524.21 712.51 508.33 707.77 497.23 C 703.04 486.13 695.22 474.10 687.75 465.25 C 680.29 456.40 670.43 445.27 661.08 439.92 C 651.74 434.57 638.04 420.51 628.00 423.00 Z"/>
</g>
<g fill="#021234" fill-opacity="1.00" stroke="None">
<path d="
M 319.00 466.00 
C 318.54 460.93 319.59 455.29 320.00 451.00
C 320.00 448.78 319.63 446.19 320.00 444.00
C 319.78 443.05 320.39 441.26 319.00 441.00
C 318.78 450.08 316.40 460.40 319.00 469.00
C 319.13 468.02 318.84 466.97 319.00 466.00 Z"/>
</g>
<g fill="#556C85" fill-opacity="1.00" stroke="None">
<path d="
M 319.00 466.00 
C 319.00 466.00 319.87 465.78 320.00 466.00
C 320.00 461.00 320.00 456.00 320.00 451.00
C 319.59 455.29 318.54 460.93 319.00 466.00 Z"/>
</g>
<g fill="#E95654" fill-opacity="1.00" stroke="None">
<path d="
M 374.00 796.00 
C 367.61 792.54 354.93 788.40 346.00 785.00
C 349.54 783.75 351.35 781.88 346.00 783.00
C 348.03 777.44 350.34 773.67 349.24 767.75 C 348.15 761.84 357.38 757.39 350.00 753.00
C 353.53 753.20 352.82 748.74 355.00 747.00
C 350.61 748.79 352.73 745.01 355.00 745.00
C 356.21 741.71 353.19 741.22 352.00 739.00
C 357.58 739.08 352.31 735.41 358.00 735.00
C 350.83 732.88 363.17 724.73 355.00 726.00
C 360.64 722.76 356.78 721.05 356.28 717.70 C 355.79 714.34 359.70 711.39 361.00 708.00
C 357.01 709.74 358.02 708.10 357.00 705.00
C 362.43 704.93 363.76 702.08 358.00 700.00
C 360.91 699.41 363.06 701.59 366.00 701.00
C 351.33 694.32 334.28 689.71 321.00 680.00
C 298.02 661.86 270.56 650.33 250.25 626.75 C 229.95 603.16 212.44 583.65 198.77 555.23 C 185.10 526.81 170.89 489.97 175.00 456.00
C 157.93 597.23 234.19 750.61 374.00 796.00 Z"/>
</g>
<g fill="#0A1E3F" fill-opacity="1.00" stroke="None">
<path d="
M 326.00 506.00 
C 321.95 495.69 319.94 481.24 320.00 470.00
C 318.84 478.50 319.96 501.25 326.00 506.00 Z"/>
</g>
<g fill="#021537" fill-opacity="1.00" stroke="None">
<path d="
M 413.00 500.00 
C 413.22 500.95 412.61 502.74 414.00 503.00
C 413.72 494.41 416.79 485.61 416.00 478.00
C 414.31 485.35 414.06 492.45 413.00 500.00 Z"/>
</g>
<g fill="#05193A" fill-opacity="1.00" stroke="None">
<path d="
M 466.00 626.00 
C 466.80 624.69 454.38 616.78 451.25 612.75 C 448.12 608.73 441.00 602.76 437.75 597.25 C 434.51 591.73 429.17 585.33 426.32 578.68 C 423.48 572.03 420.87 564.78 418.78 557.22 C 416.69 549.66 414.26 540.43 414.00 532.00 C 413.73 523.58 412.46 513.09 412.00 505.00
C 411.31 522.33 413.01 543.15 417.22 558.78 C 421.44 574.40 428.90 584.41 436.25 597.75 C 443.59 611.10 456.54 615.79 466.00 626.00 Z"/>
</g>
<g fill="#071B3C" fill-opacity="1.00" stroke="None">
<path d="
M 465.00 627.00 
C 451.84 629.39 435.64 619.73 423.68 616.32 C 411.72 612.92 401.31 604.65 391.08 597.92 C 380.85 591.19 372.26 582.23 364.25 572.75 C 356.24 563.28 348.98 553.97 342.77 543.23 C 336.56 532.49 330.10 520.09 327.00 508.00
C 334.16 537.71 352.94 565.50 376.77 588.23 C 400.60 610.96 434.80 625.03 467.00 629.00
C 466.69 627.78 465.57 627.97 465.00 627.00 Z"/>
</g>
<g fill="#031437" fill-opacity="1.00" stroke="None">
<path d="
M 720.00 538.00 
C 720.85 541.91 720.65 546.02 721.00 550.00
C 721.21 545.96 722.26 540.06 720.00 538.00 Z"/>
</g>
<g fill="#324F6A" fill-opacity="1.00" stroke="None">
<path d="
M 833.00 564.00 
C 833.76 556.19 834.59 546.59 834.00 538.00
C 833.77 545.78 833.00 555.42 833.00 564.00 Z"/>
</g>
<g fill="#081B3C" fill-opacity="1.00" stroke="None">
<path d="
M 722.00 553.00 
C 726.10 571.64 719.39 595.71 716.99 612.99 C 714.59 630.27 707.82 646.98 701.31 662.31 C 694.79 677.63 686.57 690.38 677.77 703.77 C 668.97 717.16 659.43 726.80 649.00 739.00
C 645.34 743.29 641.24 747.38 637.00 751.00
C 598.10 784.24 555.32 812.36 506.00 825.00
C 514.02 825.45 512.48 823.66 521.98 820.98 C 531.48 818.29 543.97 812.99 552.92 808.92 C 561.88 804.86 560.65 805.45 567.77 801.77 C 574.89 798.09 574.17 798.04 580.92 793.92 C 587.68 789.80 587.06 791.39 594.77 785.77 C 602.48 780.15 612.25 774.00 619.75 767.75 C 627.26 761.50 635.49 754.45 642.25 747.25 C 649.01 740.05 646.90 743.39 653.25 736.25 C 659.60 729.11 667.44 720.45 672.75 712.75 C 678.05 705.04 677.47 707.89 681.70 700.70 C 685.92 693.50 685.34 695.31 690.08 687.08 C 694.81 678.84 700.82 667.05 704.23 658.23 C 707.64 649.41 708.27 649.81 710.68 642.68 C 713.09 635.55 713.45 632.67 715.22 626.22 C 717.00 619.77 718.14 614.97 719.67 608.67 C 721.21 602.37 720.77 596.36 722.01 590.01 C 723.24 583.66 722.73 575.50 723.00 569.00 C 723.27 562.50 722.48 553.49 722.00 553.00 Z"/>
</g>
<g fill="#ED7572" fill-opacity="1.00" stroke="None">
<path d="
M 374.00 796.00 
C 384.92 799.55 396.17 801.31 408.00 803.00
C 404.66 801.85 395.11 799.48 389.00 799.00
C 395.54 798.05 389.70 787.90 397.00 788.00
C 394.64 781.74 401.63 777.20 401.07 769.92 C 400.51 762.64 405.52 756.52 404.86 751.08 C 404.20 745.63 405.06 741.43 405.93 734.93 C 406.80 728.42 402.87 721.55 411.00 719.00
C 408.83 716.90 407.18 715.64 410.00 713.00
C 403.18 707.82 389.78 710.32 384.00 704.00
C 362.52 698.09 340.69 690.74 321.00 680.00
C 334.28 689.71 351.33 694.32 366.00 701.00
C 363.06 701.59 360.91 699.41 358.00 700.00
C 363.76 702.08 362.43 704.93 357.00 705.00
C 358.02 708.10 357.01 709.74 361.00 708.00
C 359.70 711.39 355.79 714.34 356.28 717.70 C 356.78 721.05 360.64 722.76 355.00 726.00
C 363.17 724.73 350.83 732.88 358.00 735.00
C 352.31 735.41 357.58 739.08 352.00 739.00
C 353.19 741.22 356.21 741.71 355.00 745.00
C 352.73 745.01 350.61 748.79 355.00 747.00
C 352.82 748.74 353.53 753.20 350.00 753.00
C 357.38 757.39 348.15 761.84 349.24 767.75 C 350.34 773.67 348.03 777.44 346.00 783.00
C 351.35 781.88 349.54 783.75 346.00 785.00
C 354.93 788.40 367.61 792.54 374.00 796.00 Z"/>
</g>
<g fill="#F1918D" fill-opacity="1.00" stroke="None">
<path d="
M 408.00 803.00 
C 412.33 803.62 418.03 803.52 423.00 804.00
C 426.56 805.25 418.41 801.79 417.00 802.00
C 423.77 801.70 423.43 795.37 427.92 789.92 C 432.41 784.48 433.81 780.31 435.99 772.99 C 438.17 765.68 440.09 757.63 442.06 751.92 C 444.03 746.20 442.63 739.55 443.20 733.75 C 443.77 727.96 443.61 720.82 448.00 720.00
C 443.97 715.90 447.21 718.27 451.00 716.00
C 445.71 715.16 434.10 716.82 433.00 713.00
C 419.70 711.43 406.82 710.13 394.00 707.00
C 390.64 706.18 387.33 704.92 384.00 704.00
C 389.78 710.32 403.18 707.82 410.00 713.00
C 407.18 715.64 408.83 716.90 411.00 719.00
C 402.87 721.55 406.80 728.42 405.93 734.93 C 405.06 741.43 404.20 745.63 404.86 751.08 C 405.52 756.52 400.51 762.64 401.07 769.92 C 401.63 777.20 394.64 781.74 397.00 788.00
C 389.70 787.90 395.54 798.05 389.00 799.00
C 395.11 799.48 404.66 801.85 408.00 803.00 Z"/>
</g>
<g fill="#FCE8E6" fill-opacity="1.00" stroke="None">
<path d="
M 500.00 712.00 
C 485.70 714.42 470.92 715.30 456.00 715.00
C 463.15 715.86 472.14 716.74 480.00 716.00
C 484.02 715.62 488.61 714.21 493.00 715.00
C 490.89 744.20 484.27 779.08 460.00 800.00
C 461.03 802.37 465.04 799.54 466.00 802.00
C 479.23 801.66 486.11 795.89 492.75 787.75 C 499.38 779.60 503.92 774.49 507.25 764.25 C 510.57 754.00 513.76 746.90 514.07 737.08 C 514.37 727.27 513.35 720.60 516.00 711.00
C 510.77 712.83 504.66 712.03 500.00 712.00 Z"/>
</g>
<g fill="#F5B1AD" fill-opacity="1.00" stroke="None">
<path d="
M 423.00 804.00 
C 430.28 804.70 438.30 804.52 446.00 804.00
C 443.48 803.76 438.39 802.93 436.00 802.00
C 444.70 803.60 450.73 790.82 454.71 785.70 C 458.68 780.59 462.89 772.76 465.19 765.75 C 467.49 758.73 468.77 749.78 469.93 741.92 C 471.10 734.06 471.85 722.41 471.00 717.00
C 473.84 716.41 477.98 718.23 480.00 716.00
C 472.14 716.74 463.15 715.86 456.00 715.00
C 448.36 714.85 440.46 713.88 433.00 713.00
C 434.10 716.82 445.71 715.16 451.00 716.00
C 447.21 718.27 443.97 715.90 448.00 720.00
C 443.61 720.82 443.77 727.96 443.20 733.75 C 442.63 739.55 444.03 746.20 442.06 751.92 C 440.09 757.63 438.17 765.68 435.99 772.99 C 433.81 780.31 432.41 784.48 427.92 789.92 C 423.43 795.37 423.77 801.70 417.00 802.00
C 418.41 801.79 426.56 805.25 423.00 804.00 Z"/>
</g>
<g fill="#F9CDCA" fill-opacity="1.00" stroke="None">
<path d="
M 480.00 716.00 
C 477.98 718.23 473.84 716.41 471.00 717.00
C 471.85 722.41 471.10 734.06 469.93 741.92 C 468.77 749.78 467.49 758.73 465.19 765.75 C 462.89 772.76 458.68 780.59 454.71 785.70 C 450.73 790.82 444.70 803.60 436.00 802.00
C 438.39 802.93 443.48 803.76 446.00 804.00
C 453.06 803.52 459.23 802.97 466.00 802.00
C 465.04 799.54 461.03 802.37 460.00 800.00
C 484.27 779.08 490.89 744.20 493.00 715.00
C 488.61 714.21 484.02 715.62 480.00 716.00 Z"/>
</g>
<g fill="#8D9DAE" fill-opacity="1.00" stroke="None">
<path d="
M 637.00 751.00 
C 641.24 747.38 645.34 743.29 649.00 739.00
C 645.13 742.87 640.92 747.08 637.00 751.00 Z"/>
</g>
<g fill="#071C3D" fill-opacity="1.00" stroke="None">
<path d="
M 479.00 860.00 
C 479.95 859.78 481.74 860.39 482.00 859.00
C 438.03 858.17 395.80 848.61 357.00 830.00
C 368.02 829.59 380.73 834.65 392.78 835.22 C 404.83 835.79 420.90 839.24 433.00 838.00 C 445.10 836.76 461.47 837.26 472.00 834.00 C 482.53 830.74 498.69 832.76 504.00 826.00
C 478.54 833.21 451.18 835.99 424.00 836.00 C 396.82 836.02 371.65 830.21 347.00 826.00
C 387.11 850.54 432.59 855.51 479.00 860.00 Z"/>
</g>
<g fill="#0C2142" fill-opacity="1.00" stroke="None">
<path d="
M 524.00 860.00 
C 539.38 858.72 555.11 856.42 570.00 853.00
C 554.91 852.41 538.38 858.86 522.00 858.00
C 522.13 858.54 523.67 859.93 524.00 860.00 Z"/>
</g>
<g fill="#000D2E" fill-opacity="1.00" stroke="None">
<path d="
M 512.00 860.00 
C 515.00 860.00 518.00 860.00 521.00 860.00
C 516.48 858.30 508.59 858.38 504.00 860.00
C 506.67 860.00 509.33 860.00 512.00 860.00 Z"/>
</g>
</svg>