 <svg  version="1.0" xmlns="http://www.w3.org/2000/svg"  width="300.000000pt" height="300.000000pt" viewBox="0 0 300.000000 300.000000"  preserveAspectRatio="xMidYMid meet">  <g transform="translate(0.000000,300.000000) scale(0.100000,-0.100000)" fill="#c85e19" stroke="none"> <path d="M1645 2491 c-72 -18 -115 -62 -122 -125 -11 -96 23 -142 154 -202 107 -50 134 -82 97 -118 -20 -20 -86 -21 -123 -1 -16 8 -38 26 -48 41 l-20 27 -41 -38 c-48 -42 -52 -62 -19 -93 62 -59 202 -81 298 -47 86 31 127 103 103 183 -17 61 -36 78 -139 129 -49 24 -98 52 -108 61 -42 38 8 103 68 88 16 -4 43 -23 61 -42 l32 -35 36 31 c59 52 47 88 -44 129 -46 21 -126 26 -185 12z"/> <path d="M450 2488 c0 -2 -1 -128 -3 -281 l-2 -277 90 -1 c189 -2 254 13 313 73 80 84 101 231 46 342 -52 107 -141 146 -331 146 -62 0 -113 -1 -113 -2z m263 -135 c45 -23 67 -69 67 -143 0 -111 -51 -170 -147 -170 l-43 0 0 164 c0 122 3 165 13 169 18 7 79 -4 110 -20z"/> <path d="M977 2293 c1 -109 5 -213 7 -231 7 -47 51 -101 100 -123 47 -21 176 -26 241 -8 50 14 100 64 114 115 5 21 11 130 13 242 l3 202 -72 0 -73 0 0 -199 c0 -184 -1 -200 -20 -224 -38 -49 -135 -43 -159 9 -7 16 -11 94 -11 219 l0 195 -72 0 -73 0 2 -197z"/> <path d="M1967 2473 c-8 -31 -2 -103 8 -104 6 0 32 3 58 6 79 11 79 14 76 -234 -2 -215 -2 -216 20 -219 12 -2 44 4 71 13 l50 16 2 212 3 212 35 -1 c19 0 49 -2 65 -5 l30 -4 -1 50 c-1 28 -2 56 -3 63 -1 9 -49 12 -205 12 -186 0 -205 -2 -209 -17z"/> <path d="M2461 2278 c-63 -31 -91 -94 -91 -205 l0 -82 -67 -40 c-79 -46 -217 -95 -318 -111 -78 -13 -468 -14 -640 -1 -118 8 -367 6 -450 -4 -228 -28 -424 -102 -550 -208 -64 -54 -56 -64 18 -23 34 19 103 48 152 64 88 29 223 57 232 49 2 -3 -22 -15 -54 -28 -90 -35 -176 -94 -239 -162 -65 -70 -120 -151 -130 -193 -7 -26 -3 -23 37 22 97 110 203 183 357 246 199 81 323 98 802 108 275 6 402 13 445 23 129 31 259 86 350 147 22 14 45 30 52 34 8 4 16 -8 23 -36 7 -24 25 -67 41 -96 16 -29 27 -57 24 -61 -2 -5 -25 -14 -50 -20 -83 -21 -41 -43 80 -41 33 1 88 -2 122 -5 95 -10 136 21 66 50 -62 26 -66 33 -38 67 62 74 72 176 21 210 -20 14 -23 9 -35 -50 -11 -59 -52 -132 -74 -132 -21 0 -87 119 -87 157 0 13 24 45 60 82 100 99 124 179 71 232 -36 35 -69 37 -130 7z m73 -54 c35 -13 2 -91 -63 -148 -30 -27 -36 -14 -23 55 15 83 41 110 86 93z"/> <path d="M990 1321 l0 -282 72 3 71 3 -2 88 -2 87 35 0 c33 0 36 -3 66 -67 17 -38 36 -78 42 -90 10 -21 19 -23 85 -23 40 0 73 3 73 8 0 4 -7 17 -15 30 -29 40 -85 144 -85 155 0 7 14 20 30 29 80 45 92 197 23 271 -47 49 -85 59 -245 64 l-148 6 0 -282z m268 149 c27 -17 32 -25 32 -60 0 -51 -25 -76 -84 -85 -71 -11 -76 -6 -76 78 0 41 3 77 7 80 14 14 89 6 121 -13z"/> <path d="M1494 1383 c3 -229 8 -254 53 -295 50 -46 165 -67 255 -49 70 15 133 66 148 119 5 20 11 128 12 240 l3 202 -72 0 -73 0 0 -199 c0 -185 -1 -200 -21 -225 -17 -21 -29 -26 -68 -26 -52 0 -86 23 -97 65 -3 13 -4 105 -2 205 l3 180 -72 0 -72 0 3 -217z"/> <path d="M2035 1320 l0 -280 65 0 66 0 -4 160 c-3 109 -1 160 6 160 6 0 53 -69 104 -154 59 -100 99 -157 113 -160 11 -3 46 -6 78 -6 l57 0 0 258 c0 141 3 267 6 280 6 21 4 22 -67 22 l-74 0 3 -170 c2 -96 0 -170 -5 -170 -5 0 -43 59 -84 130 -41 72 -86 149 -102 170 -27 40 -27 40 -95 40 l-67 0 0 -280z"/> <path d="M450 754 l0 -165 32 3 c30 3 32 5 32 48 l1 45 55 5 c69 6 105 29 120 75 31 94 -36 155 -171 155 l-69 0 0 -166z m168 84 c16 -16 15 -63 -2 -77 -8 -7 -34 -11 -58 -9 -41 3 -43 5 -46 36 -2 19 -1 40 2 48 7 18 87 19 104 2z"/> <path d="M805 910 c-5 -8 -9 -237 -6 -307 1 -8 14 -13 31 -13 l30 0 0 65 0 65 75 0 74 0 3 -67 c3 -65 4 -68 28 -68 l25 0 0 165 0 165 -27 3 c-27 3 -27 3 -30 -65 l-3 -68 -70 0 -70 0 -3 68 c-3 63 -4 67 -27 67 -13 0 -27 -5 -30 -10z"/> <path d="M1247 895 c-49 -34 -67 -72 -67 -141 0 -163 172 -234 274 -113 29 34 41 84 33 141 -15 114 -146 176 -240 113z m141 -55 c44 -41 42 -139 -3 -177 -69 -60 -159 14 -140 114 14 74 93 109 143 63z"/> <path d="M1552 888 c3 -32 5 -33 51 -36 l47 -3 0 -130 0 -129 30 0 30 0 0 130 c0 117 2 130 18 132 9 0 22 2 27 3 6 2 20 3 33 4 18 1 22 7 22 31 l0 30 -131 0 -130 0 3 -32z"/> <path d="M1964 906 c-116 -51 -122 -235 -9 -301 52 -31 88 -31 145 -2 64 31 92 84 87 160 -7 120 -116 189 -223 143z m130 -72 c22 -22 26 -36 26 -81 0 -47 -4 -59 -30 -85 -26 -26 -36 -30 -66 -25 -20 3 -42 11 -50 18 -20 17 -36 84 -28 124 13 72 97 99 148 49z"/> <path d="M2316 886 c-65 -61 -38 -120 74 -160 66 -24 83 -44 60 -71 -18 -21 -73 -18 -103 5 -23 19 -29 19 -52 8 -23 -13 -24 -15 -10 -35 37 -52 118 -67 184 -33 42 21 51 35 51 85 0 46 -25 71 -94 93 -66 21 -87 42 -70 70 18 28 60 27 89 -2 22 -22 29 -24 48 -15 30 16 30 15 18 38 -17 30 -63 51 -115 51 -37 0 -51 -6 -80 -34z"/> </g> </svg> 